<svg width="38" height="38" viewBox="0 0 38 38" fill="none" xmlns="http://www.w3.org/2000/svg">
<path fill-rule="evenodd" clip-rule="evenodd" d="M18.751 0C29.1061 0.00028273 37.501 8.39484 37.501 18.75C37.501 29.1052 29.1061 37.4997 18.751 37.5C8.39571 37.5 0 29.1053 0 18.75C0 8.39466 8.39571 0 18.751 0ZM26.7868 13.0455C26.7865 12.9559 26.6821 12.9058 26.612 12.9618L19.0848 18.9833C18.8892 19.1398 18.6119 19.1398 18.4162 18.9833L10.889 12.9618C10.819 12.9058 10.7156 12.9559 10.7153 13.0455V21.958C10.7153 22.2794 10.859 22.5842 11.1077 22.7877L16.2148 26.9657C16.4635 27.1692 16.6082 27.4741 16.6082 27.7954V35.219C17.3096 35.3094 18.0251 35.3571 18.751 35.3571C19.4772 35.3571 20.1923 35.3094 20.8939 35.219V27.7954C20.8939 27.4741 21.0376 27.1692 21.2863 26.9657L26.3933 22.7877C26.6421 22.5842 26.7868 22.2794 26.7868 21.958V13.0455ZM18.751 2.14286C9.57917 2.14286 2.1439 9.57813 2.1439 18.75C2.1439 26.2451 7.10908 32.5786 13.9296 34.6446V28.6126C13.9296 28.4521 13.857 28.3 13.7329 28.1982L8.42913 23.8592C8.18041 23.6557 8.03676 23.3508 8.03676 23.0294V10.144C8.0369 9.8483 8.2767 9.60833 8.57247 9.60833H10.3387C10.5819 9.60833 10.8183 9.69177 11.0083 9.84375L18.3493 15.7157C18.584 15.9034 18.917 15.9034 19.1518 15.7157L26.4927 9.84375C26.6827 9.69177 26.9191 9.60833 27.1624 9.60833H28.9296C29.2252 9.60861 29.4652 9.84847 29.4653 10.144V23.0294C29.4653 23.3508 29.3206 23.6557 29.0719 23.8592L23.7681 28.1982C23.644 28.3 23.5725 28.4521 23.5725 28.6126V34.6446C30.3925 32.5783 35.3582 26.2447 35.3582 18.75C35.3582 9.5783 27.9227 2.14314 18.751 2.14286Z" fill="#2B2B2B"/>
<path fill-rule="evenodd" clip-rule="evenodd" d="M18.751 0C29.1061 0.00028273 37.501 8.39484 37.501 18.75C37.501 29.1052 29.1061 37.4997 18.751 37.5C8.39571 37.5 0 29.1053 0 18.75C0 8.39466 8.39571 0 18.751 0ZM26.7868 13.0455C26.7865 12.9559 26.6821 12.9058 26.612 12.9618L19.0848 18.9833C18.8892 19.1398 18.6119 19.1398 18.4162 18.9833L10.889 12.9618C10.819 12.9058 10.7156 12.9559 10.7153 13.0455V21.958C10.7153 22.2794 10.859 22.5842 11.1077 22.7877L16.2148 26.9657C16.4635 27.1692 16.6082 27.4741 16.6082 27.7954V35.219C17.3096 35.3094 18.0251 35.3571 18.751 35.3571C19.4772 35.3571 20.1923 35.3094 20.8939 35.219V27.7954C20.8939 27.4741 21.0376 27.1692 21.2863 26.9657L26.3933 22.7877C26.6421 22.5842 26.7868 22.2794 26.7868 21.958V13.0455ZM18.751 2.14286C9.57917 2.14286 2.1439 9.57813 2.1439 18.75C2.1439 26.2451 7.10908 32.5786 13.9296 34.6446V28.6126C13.9296 28.4521 13.857 28.3 13.7329 28.1982L8.42913 23.8592C8.18041 23.6557 8.03676 23.3508 8.03676 23.0294V10.144C8.0369 9.8483 8.2767 9.60833 8.57247 9.60833H10.3387C10.5819 9.60833 10.8183 9.69177 11.0083 9.84375L18.3493 15.7157C18.584 15.9034 18.917 15.9034 19.1518 15.7157L26.4927 9.84375C26.6827 9.69177 26.9191 9.60833 27.1624 9.60833H28.9296C29.2252 9.60861 29.4652 9.84847 29.4653 10.144V23.0294C29.4653 23.3508 29.3206 23.6557 29.0719 23.8592L23.7681 28.1982C23.644 28.3 23.5725 28.4521 23.5725 28.6126V34.6446C30.3925 32.5783 35.3582 26.2447 35.3582 18.75C35.3582 9.5783 27.9227 2.14314 18.751 2.14286Z" fill="#2B2B2B" fill-opacity="0.2"/>
</svg>
